<svg xmlns="http://www.w3.org/2000/svg" viewBox="0 0 1200 800">
  <defs>
    <linearGradient id="bg" x1="0" y1="0" x2="1" y2="1">
      <stop offset="0%" stop-color="#2E1A47" />
      <stop offset="100%" stop-color="#1E1B2E" />
    </linearGradient>
    <linearGradient id="accentGrad" x1="0" y1="0" x2="1" y2="0">
      <stop offset="0%" stop-color="#8B5CF6" />
      <stop offset="100%" stop-color="#A78BFA" />
    </linearGradient>
  </defs>

  <rect width="1200" height="800" fill="url(#bg)" />
  <rect x="0" y="0" width="1200" height="90" fill="rgba(255,255,255,0.04)" />
  <circle cx="60" cy="45" r="14" fill="#8B5CF6" />
  <rect x="90" y="35" width="120" height="20" rx="4" fill="#F1ECFE" opacity="0.9" />
  <rect x="960" y="32" width="180" height="28" rx="14" fill="url(#accentGrad)" />

  <rect x="60" y="160" width="620" height="46" rx="4" fill="#ffffff" />
  <rect x="60" y="222" width="520" height="18" rx="4" fill="#C4B5FD" opacity="0.85" />
  <rect x="60" y="252" width="460" height="18" rx="4" fill="#C4B5FD" opacity="0.65" />
  <rect x="60" y="310" width="190" height="52" rx="26" fill="url(#accentGrad)" />
  <rect x="270" y="310" width="150" height="52" rx="26" fill="none" stroke="#ffffff" stroke-opacity="0.4" stroke-width="2" />

  <rect x="720" y="150" width="420" height="280" rx="18" fill="rgba(255,255,255,0.06)" />
  <rect x="750" y="182" width="360" height="20" rx="10" fill="#8B5CF6" opacity="0.85" />
  <rect x="750" y="216" width="300" height="140" rx="12" fill="rgba(255,255,255,0.08)" />

  <rect x="0" y="470" width="1200" height="330" fill="rgba(255,255,255,0.03)" />
  <rect x="60" y="520" width="330" height="230" rx="18" fill="rgba(255,255,255,0.07)" />
  <rect x="435" y="520" width="330" height="230" rx="18" fill="rgba(255,255,255,0.07)" />
  <rect x="810" y="520" width="330" height="230" rx="18" fill="rgba(255,255,255,0.07)" />

  <circle cx="120" cy="575" r="16" fill="#8B5CF6" />
  <rect x="90" y="610" width="270" height="16" rx="4" fill="#ffffff" opacity="0.9" />
  <rect x="90" y="638" width="220" height="12" rx="4" fill="#C4B5FD" opacity="0.6" />

  <circle cx="495" cy="575" r="16" fill="#8B5CF6" />
  <rect x="465" y="610" width="270" height="16" rx="4" fill="#ffffff" opacity="0.9" />
  <rect x="465" y="638" width="220" height="12" rx="4" fill="#C4B5FD" opacity="0.6" />

  <circle cx="870" cy="575" r="16" fill="#8B5CF6" />
  <rect x="840" y="610" width="270" height="16" rx="4" fill="#ffffff" opacity="0.9" />
  <rect x="840" y="638" width="220" height="12" rx="4" fill="#C4B5FD" opacity="0.6" />

  <text x="90" y="42" font-family="Manrope, Arial, sans-serif" font-size="16" font-weight="700" fill="#ffffff">AVAN</text>
</svg>
