<svg xmlns="http://www.w3.org/2000/svg" viewBox="0 0 1200 800">
  <rect width="1200" height="800" fill="#e5e3dd" />
  <rect x="0" y="0" width="1200" height="34" fill="#c0392b" />
  <text x="600" y="23" font-family="Arial, sans-serif" font-size="16" font-weight="bold" fill="#ffe08a" text-anchor="middle">
    !!! SEITE IM AUFBAU — BESUCHEN SIE UNS BALD WIEDER !!!
  </text>
  <rect x="0" y="34" width="1200" height="90" fill="#d6d3c9" />
  <rect x="40" y="64" width="140" height="30" rx="3" fill="#9c9689" />
  <rect x="900" y="69" width="70" height="20" rx="2" fill="#b7b2a3" />
  <rect x="990" y="69" width="70" height="20" rx="2" fill="#b7b2a3" />
  <rect x="1080" y="69" width="80" height="20" rx="2" fill="#b7b2a3" />

  <rect x="60" y="150" width="560" height="36" rx="2" fill="#8b867a" />
  <rect x="60" y="200" width="460" height="16" rx="2" fill="#a7a294" />
  <rect x="60" y="226" width="420" height="16" rx="2" fill="#a7a294" />
  <rect x="60" y="252" width="380" height="16" rx="2" fill="#a7a294" />
  <rect x="60" y="300" width="150" height="42" fill="#8b867a" />

  <rect x="700" y="150" width="440" height="260" fill="#cfccc0" />
  <rect x="740" y="190" width="360" height="180" fill="#bcb8ab" />

  <rect x="0" y="470" width="1200" height="330" fill="#dedbd0" />
  <rect x="60" y="520" width="330" height="230" fill="#cfccc0" />
  <rect x="435" y="520" width="330" height="230" fill="#cfccc0" />
  <rect x="810" y="520" width="330" height="230" fill="#cfccc0" />
  <rect x="90" y="550" width="270" height="14" rx="2" fill="#9c9689" />
  <rect x="90" y="574" width="220" height="12" rx="2" fill="#a7a294" />
  <rect x="465" y="550" width="270" height="14" rx="2" fill="#9c9689" />
  <rect x="465" y="574" width="220" height="12" rx="2" fill="#a7a294" />
  <rect x="840" y="550" width="270" height="14" rx="2" fill="#9c9689" />
  <rect x="840" y="574" width="220" height="12" rx="2" fill="#a7a294" />

  <text x="60" y="120" font-family="Georgia, serif" font-size="22" fill="#78735f">Musterfirma GmbH — Willkommen</text>
</svg>
